<svg version="1.1" id="Layer_1" xmlns="http://www.w3.org/2000/svg" xmlns:xlink="http://www.w3.org/1999/xlink" x="0px" y="0px"
	 width="100%" viewBox="0 0 1254 1254" enable-background="new 0 0 1254 1254" xml:space="preserve">
<path fill="#FEFEFE" opacity="1.000000" stroke="none" 
	d="
M862.000000,1255.000000 
	C574.666687,1255.000000 287.833344,1255.000000 1.000000,1255.000000 
	C1.000000,837.000000 1.000000,419.000000 1.000000,1.000000 
	C419.000000,1.000000 837.000000,1.000000 1255.000000,1.000000 
	C1255.000000,419.000000 1255.000000,837.000000 1255.000000,1255.000000 
	C1124.166626,1255.000000 993.333313,1255.000000 862.000000,1255.000000 
M730.649841,318.651367 
	C730.649841,318.651367 730.580872,318.679382 729.996155,318.961090 
	C723.047180,329.309052 716.098267,339.657043 708.669373,350.501129 
	C706.734802,353.610596 704.603699,356.616364 702.898926,359.847046 
	C694.440002,375.876648 686.093445,391.965546 677.207397,408.496582 
	C670.298096,423.953033 663.388794,439.409485 656.062622,455.378510 
	C655.019958,457.908875 653.977295,460.439270 652.429321,463.439178 
	C651.284729,466.292450 650.140137,469.145721 648.492920,472.479309 
	C642.919128,483.792450 637.631653,495.257660 631.717529,506.390015 
	C614.435364,538.921143 587.909790,559.969971 551.869568,567.887878 
	C533.447754,571.935120 514.624512,574.155029 495.129395,577.084900 
	C490.827850,577.357666 486.518188,577.955627 482.226166,577.848083 
	C461.153870,577.320190 440.086243,576.604797 418.263550,575.752319 
	C416.181488,575.566040 414.099396,575.379761 411.360596,574.997131 
	C410.906036,575.000549 410.451447,575.003967 409.248016,574.794678 
	C407.169617,574.581299 405.091217,574.367859 402.357361,573.959473 
	C401.903809,573.976685 401.450226,573.993835 400.210785,573.786255 
	C395.955902,573.176941 391.711670,572.476624 387.443756,571.978882 
	C380.397919,571.157104 373.302277,570.697571 366.292206,569.652283 
	C359.837524,568.689880 353.467865,567.157227 346.470917,565.502258 
	C345.317535,565.377319 344.164154,565.252319 342.515198,564.951965 
	C342.341370,564.974182 342.167542,564.996399 341.321075,564.738403 
	C339.885742,564.546692 338.450409,564.354980 336.379120,563.934692 
	C335.931396,563.930298 335.483704,563.925903 334.469238,563.523987 
	C333.326599,563.394348 332.183929,563.264648 330.535522,562.947571 
	C330.356598,562.965210 330.177704,562.982910 329.266144,562.679077 
	C318.418457,561.515930 307.582825,559.545044 296.720184,559.382996 
	C281.257935,559.152222 267.024872,563.763245 254.389618,574.264099 
	C235.141510,590.874451 226.001709,611.892639 228.474030,637.198364 
	C230.703247,660.015625 241.598099,678.821350 257.921692,694.650146 
	C271.812317,708.119629 288.373474,717.198792 306.270538,724.029541 
	C309.805267,725.378662 313.917145,725.415771 317.227417,727.106384 
	C322.240601,729.666626 326.784180,733.146362 331.952606,736.772888 
	C333.961273,738.194458 335.969910,739.616028 338.333038,741.611389 
	C340.097717,743.079468 341.862396,744.547546 343.857239,746.550415 
	C353.937531,756.750916 360.185822,769.009216 363.408691,783.834900 
	C365.284698,794.946777 365.374451,806.020264 362.911591,817.079285 
	C359.535980,832.236816 353.655548,846.266296 345.259796,859.386292 
	C337.195312,871.988647 328.483521,884.418152 322.346741,897.961487 
	C310.272461,924.608337 321.000824,951.398376 347.360718,964.064880 
	C362.007782,971.103149 377.296173,971.346313 392.751801,967.520203 
	C415.412445,961.910522 433.717529,948.726318 450.786865,933.511963 
	C468.800598,917.455688 485.986786,900.378540 507.720520,887.942749 
	C523.346008,879.207275 540.042908,873.328186 557.587280,870.086487 
	C570.054443,867.782898 582.666382,866.262329 596.075317,864.348755 
	C598.386658,864.189758 600.698059,864.030701 603.677368,863.997314 
	C604.517639,863.789490 605.357971,863.581665 607.106628,863.336365 
	C617.368164,862.852661 627.633728,862.435303 637.886536,861.808594 
	C639.309204,861.721680 641.279236,860.983276 641.958069,859.897522 
	C646.253479,853.026672 650.256592,845.973145 654.880798,838.586914 
	C656.887329,835.198730 658.893921,831.810486 661.343628,828.077393 
	C661.917480,827.061768 662.491272,826.046204 663.600098,824.617371 
	C672.765137,809.491455 681.930176,794.365540 691.622009,778.795837 
	C694.741028,773.195312 697.860046,767.594727 701.003296,761.986633 
	C701.003296,761.986633 700.982483,761.963013 701.507385,761.571533 
	C702.959839,759.580566 704.563049,757.681519 705.841309,755.584473 
	C718.300598,735.144226 730.656067,714.640747 743.138367,694.214661 
	C759.954285,666.697144 776.873474,639.242737 793.666870,611.711609 
	C794.471191,610.393127 794.603455,608.613708 794.857666,607.018555 
	C797.590942,589.865845 800.097839,572.674194 803.089539,555.567078 
	C804.186768,549.293213 806.407043,543.215698 808.583252,536.509644 
	C816.725708,516.007751 824.868164,495.505890 833.510010,474.540741 
	C844.816772,452.648773 858.423279,432.310913 875.207886,413.451416 
	C883.143799,405.648590 891.079712,397.845734 899.638550,389.785797 
	C902.586975,387.371887 905.565979,384.994293 908.478516,382.537781 
	C920.368408,372.509186 932.238037,362.456451 944.738892,352.099091 
	C951.830627,343.535431 959.855103,335.575226 965.852783,326.303864 
	C992.115295,285.706177 975.407227,247.530304 945.693237,227.724304 
	C925.818115,214.476517 903.597229,210.952026 880.254700,214.538803 
	C850.957642,219.040527 824.504211,230.381729 800.491211,248.844467 
	C800.013855,248.974594 799.447571,248.981430 799.071960,249.252487 
	C778.306824,264.234985 759.886841,281.693787 743.226501,301.966095 
	C739.031006,307.503235 734.835571,313.040405 730.649841,318.651367 
M841.008301,954.062195 
	C841.008301,954.062195 840.915039,954.073425 841.217590,954.680542 
	C845.355591,957.457581 849.406860,960.375244 853.646423,962.987488 
	C872.872253,974.833984 893.205505,982.272888 916.398254,980.198364 
	C941.924988,977.914978 962.031860,966.169495 976.136841,945.341492 
	C992.530518,921.133789 990.936890,895.853455 977.178162,870.805054 
	C966.933655,852.154419 951.328674,838.370422 934.841553,825.736450 
	C907.648987,804.898804 879.615784,785.137146 855.072327,760.140381 
	C849.996338,754.205872 844.754700,748.404175 839.873169,742.313843 
	C818.947510,716.206360 804.016418,687.205994 797.808105,654.071350 
	C796.710815,648.214478 795.734131,642.334961 794.439087,634.972717 
	C747.970581,711.195740 702.352234,786.024414 656.442627,861.330627 
	C666.092163,861.988647 674.445251,862.033691 682.635193,863.212036 
	C710.665222,867.244751 736.560364,877.538025 759.718262,893.492920 
	C782.412415,909.128418 803.960144,926.427734 826.320129,943.546936 
	C827.184631,944.125000 828.049133,944.703125 829.127197,945.652466 
	C829.328735,945.873779 829.578064,946.002808 830.231750,946.578003 
	C831.122375,947.158569 832.013000,947.739197 833.258728,948.836243 
	C834.796509,949.904297 836.334290,950.972351 838.225098,952.576294 
	C839.126038,953.087830 840.026978,953.599304 841.008301,954.062195 
z"/>
<path fill="#EAB64B" opacity="1.000000" stroke="none" 
	d="
M808.114990,537.048645 
	C806.407043,543.215698 804.186768,549.293213 803.089539,555.567078 
	C800.097839,572.674194 797.590942,589.865845 794.857666,607.018555 
	C794.603455,608.613708 794.471191,610.393127 793.666870,611.711609 
	C776.873474,639.242737 759.954285,666.697144 743.138367,694.214661 
	C730.656067,714.640747 718.300598,735.144226 705.841309,755.584473 
	C704.563049,757.681519 702.959839,759.580566 701.286255,761.408264 
	C701.065125,758.957458 701.065125,756.669861 701.065125,753.532593 
	C702.615479,751.909180 705.687012,749.680176 702.220032,745.991577 
	C701.862244,745.610901 701.955322,744.696289 702.019287,744.047119 
	C702.502441,739.143250 700.227173,738.770569 696.316040,740.264648 
	C694.927063,740.795227 692.374573,741.056885 691.737244,740.290466 
	C689.183350,737.219055 686.540344,733.946289 685.092529,730.288025 
	C682.065369,722.639282 675.228149,720.705322 668.737183,717.991211 
	C667.038879,717.281128 665.471313,716.258118 663.844238,715.377686 
	C662.030518,714.396362 659.146912,712.141846 658.569275,712.628052 
	C652.647339,717.612549 649.602966,712.221985 646.966187,709.041504 
	C644.266907,705.785522 641.807617,705.584412 638.523132,706.515808 
	C638.001038,708.773987 637.540771,710.764587 636.770752,714.094849 
	C633.653748,711.700012 631.338562,710.094971 629.222656,708.260132 
	C624.602722,704.253845 620.057007,700.160583 615.532288,696.046387 
	C611.556458,692.431030 607.278259,689.041138 603.924744,684.909424 
	C602.817566,683.545410 604.176880,680.179260 604.408447,677.728577 
	C604.156433,678.078552 603.904419,678.428528 603.652405,678.778564 
	C600.488342,676.411560 597.493286,673.751892 594.095337,671.789917 
	C592.126892,670.653381 589.529602,670.485962 587.176636,670.186462 
	C586.028137,670.040344 584.791199,670.589600 583.947266,670.755005 
	C583.251770,666.551147 582.643860,662.876587 581.903076,658.398804 
	C577.949402,660.545105 574.419739,662.599915 570.742249,664.342712 
	C569.990234,664.699036 567.911133,664.076538 567.785400,663.571350 
	C567.480042,662.343811 567.727844,660.832581 568.186951,659.596863 
	C568.802490,657.940125 569.827332,656.435486 570.676514,654.865540 
	C568.378113,654.319214 565.459595,652.611328 563.898071,653.445068 
	C559.283203,655.909119 556.954224,653.029602 553.381104,650.432007 
	C554.917419,649.457581 555.879822,648.418030 556.993408,648.217407 
	C561.108521,647.476135 560.561890,645.473145 558.534668,643.090149 
	C557.373291,641.724854 555.854065,640.664062 554.691711,639.299377 
	C553.357361,637.732788 551.475342,636.112183 551.163879,634.287537 
	C550.000854,627.474792 544.426575,625.514160 539.434021,623.059387 
	C532.428101,619.614685 524.189819,617.697388 523.370728,607.775269 
	C523.269409,606.547913 522.624939,605.365356 522.259583,604.245911 
	C521.407349,604.181396 520.893066,604.031738 520.426453,604.123840 
	C514.450134,605.302979 509.242950,601.853210 507.963806,595.834229 
	C507.122467,591.875488 502.001831,588.878784 497.835632,589.464905 
	C496.091461,589.710266 493.380768,589.553955 492.542542,588.471008 
	C490.588531,585.946594 489.503540,582.749451 488.221741,580.140869 
	C491.156738,579.029053 493.569733,578.114990 495.982697,577.200928 
	C514.624512,574.155029 533.447754,571.935120 551.869568,567.887878 
	C587.909790,559.969971 614.435364,538.921143 631.717529,506.390015 
	C637.631653,495.257660 642.919128,483.792450 649.169434,472.239685 
	C651.954102,472.280823 654.080444,472.858551 656.163452,472.730560 
	C657.404785,472.654297 658.634827,471.541077 659.705444,470.687622 
	C659.830872,470.587646 659.052612,469.037292 658.444763,468.394135 
	C656.675720,466.522064 654.780396,464.769226 652.934631,462.969635 
	C653.977295,460.439270 655.019958,457.908875 656.694946,455.159027 
	C658.596313,455.977783 660.200073,456.796692 661.057373,458.104797 
	C662.400330,460.153992 662.976440,462.710449 664.342224,464.739075 
	C667.888611,470.006561 667.506348,473.402832 662.450500,477.871277 
	C661.178162,477.363007 659.900391,476.852570 658.622620,476.342133 
	C663.075439,480.558167 662.340149,484.326019 656.772827,488.187073 
	C659.850342,489.020386 661.523987,489.669067 663.252197,489.888672 
	C665.123779,490.126495 667.197083,489.499817 668.919373,490.059540 
	C675.176575,492.092926 681.735291,489.555969 685.319397,483.738281 
	C686.332336,482.093964 688.264648,481.016083 689.775269,479.678406 
	C690.142517,480.049957 690.509766,480.421509 690.877014,480.793060 
	C690.300171,482.644928 689.723328,484.496796 688.828979,487.368011 
	C691.245850,485.924957 692.695557,485.059357 694.397827,484.042999 
	C695.390869,486.652771 696.240601,488.885742 697.027954,490.954895 
	C693.612305,493.784576 688.423523,487.936920 686.472900,493.743408 
	C688.070679,495.016907 690.130737,495.876160 690.810059,497.365265 
	C692.170288,500.347168 693.887390,500.186676 696.440979,499.350647 
	C697.770020,498.915558 699.419373,499.133087 700.855164,499.411346 
	C705.085632,500.231201 708.566345,506.451965 713.666870,501.123688 
	C713.912109,500.867493 714.632996,501.093689 715.127319,501.044403 
	C718.257751,500.732330 721.391418,500.445007 724.514832,500.072479 
	C727.217041,499.750214 729.504639,500.068939 730.537048,503.091095 
	C730.950256,504.300598 731.558411,505.443512 732.295593,507.108490 
	C736.844910,504.806091 739.581360,505.924316 741.613647,510.668213 
	C743.044556,514.008423 746.118164,516.813477 750.112305,513.136230 
	C758.350952,519.833862 768.145081,525.459900 761.643372,539.426880 
	C769.394836,535.936279 772.441162,541.738525 776.565613,544.680359 
	C777.062500,544.502319 777.423950,544.465637 777.660828,544.274475 
	C784.981628,538.365601 788.114563,538.776917 793.746216,546.067993 
	C795.171265,547.913025 797.159485,549.323059 799.988586,551.956665 
	C799.988586,547.463867 799.875427,544.525085 800.021362,541.599121 
	C800.159241,538.835022 800.569397,536.084473 800.859802,533.328003 
	C803.278198,534.568237 805.696594,535.808472 808.114990,537.048645 
z"/>
<path fill="#D59D34" opacity="1.000000" stroke="none" 
	d="
M343.627075,746.015625 
	C341.862396,744.547546 340.097717,743.079468 338.352203,741.041016 
	C338.385437,739.062744 338.399506,737.654846 338.413574,736.246948 
	C336.118134,736.243103 333.822693,736.239258 331.527283,736.235474 
	C326.784180,733.146362 322.240601,729.666626 317.227417,727.106384 
	C313.917145,725.415771 309.805267,725.378662 306.270538,724.029541 
	C288.373474,717.198792 271.812317,708.119629 257.921692,694.650146 
	C241.598099,678.821350 230.703247,660.015625 228.474030,637.198364 
	C226.001709,611.892639 235.141510,590.874451 254.892181,574.480408 
	C260.205811,576.946350 265.762421,575.973511 270.469482,580.236267 
	C274.481415,583.869507 280.997986,584.736938 284.849670,586.226013 
	C290.695465,593.898315 295.741058,600.520386 301.101837,607.556091 
	C295.678986,610.384583 294.217194,614.169678 295.727997,620.341370 
	C297.155762,626.173706 299.192719,630.952942 303.692688,634.519165 
	C305.517456,633.236877 307.222290,632.038818 309.288971,630.586487 
	C309.870605,632.908203 310.218384,634.296509 310.428192,635.134094 
	C312.506958,635.707458 314.086884,636.143250 315.666748,636.579041 
	C314.844971,637.839478 313.974274,639.071472 313.219055,640.370667 
	C312.734314,641.204529 312.105408,642.129211 312.082001,643.027283 
	C311.965668,647.491028 312.028931,651.959473 312.028931,656.229675 
	C313.701660,656.608032 315.757721,657.072998 316.555817,657.253540 
	C316.555817,660.526978 315.624908,663.677063 316.739990,664.805420 
	C319.481781,667.579956 322.917694,670.053711 326.535431,671.474915 
	C330.556610,673.054565 331.345917,675.594116 330.991302,679.207642 
	C330.720703,681.964966 331.558044,683.248291 334.445770,684.605835 
	C338.884308,686.692322 342.920532,689.939880 346.551849,693.314270 
	C348.475830,695.102051 348.603333,698.868469 350.561340,700.564941 
	C354.994598,704.406067 354.703156,708.774597 354.220886,713.896606 
	C353.864410,717.682190 354.742096,721.769226 355.907135,725.457581 
	C356.951324,728.763367 359.203094,728.951538 361.142609,725.688538 
	C363.057312,722.467468 365.039948,719.286804 366.971558,716.123108 
	C372.285950,718.487610 373.607727,721.866577 370.677246,725.117493 
	C367.946503,728.146729 368.257080,732.667053 370.949768,736.490723 
	C373.848511,740.607056 376.738220,739.476379 380.204407,737.394531 
	C381.408813,736.671143 384.079285,736.450256 384.778503,737.205322 
	C386.532898,739.099915 387.704620,741.608215 388.819946,744.005371 
	C391.247009,749.221741 393.493286,754.522217 395.861786,759.898010 
	C400.773010,755.775146 401.089050,755.923157 403.170380,761.544312 
	C403.552338,762.575867 404.807587,763.761108 405.846466,763.977051 
	C408.312622,764.489807 410.890747,764.463684 414.381287,764.727844 
	C413.701660,766.619690 413.073975,768.312561 412.487122,770.019470 
	C412.087036,771.183167 411.078552,772.712830 411.480988,773.486084 
	C414.595581,779.470093 416.141388,786.992065 424.703094,788.090515 
	C425.311462,788.168640 426.086365,788.540222 426.405670,789.024658 
	C428.666534,792.454956 431.027588,792.893921 434.014801,789.781677 
	C434.443665,789.334778 436.155060,789.810669 437.068146,790.268250 
	C437.517151,790.493347 437.885742,791.919250 437.603607,792.331299 
	C437.120605,793.036804 436.148865,793.618835 435.287872,793.797607 
	C434.341614,793.994141 433.288635,793.676453 431.852173,793.542847 
	C433.303925,798.618713 436.413818,796.980225 438.644531,795.788818 
	C440.933655,794.566284 442.737396,792.434875 444.362976,791.037048 
	C444.996857,795.282043 445.498413,798.640991 445.715942,802.035034 
	C445.109680,802.374817 444.787506,802.679688 444.465302,802.984497 
	C444.674683,803.165955 444.884064,803.347412 445.093475,803.528931 
	C445.395660,803.019287 445.697845,802.509644 446.359039,802.039185 
	C447.773346,803.057983 449.369354,803.855164 449.774078,805.054443 
	C450.683990,807.750671 452.157074,808.229980 454.717957,807.653809 
	C460.198029,806.420837 464.175293,809.388489 467.878235,812.814819 
	C470.989929,815.694031 473.703064,819.129517 477.162476,821.480042 
	C483.479309,825.771912 485.179382,830.178589 481.139893,836.073486 
	C483.539886,836.416992 485.625183,836.537659 487.609680,837.049133 
	C489.621704,837.567871 491.742889,838.160217 493.435547,839.290527 
	C495.392517,840.597412 496.828278,842.656372 498.675476,844.161560 
	C504.040375,848.533386 504.297302,851.321228 500.093750,856.320068 
	C499.427368,857.112488 499.785370,859.252380 500.344879,860.455261 
	C500.925903,861.704468 502.267731,862.641174 503.379944,863.594238 
	C506.685059,866.426331 510.021301,869.223083 513.385925,871.984192 
	C514.864746,873.197754 517.510010,874.107910 517.745667,875.478882 
	C518.197327,878.106445 516.765076,879.966675 513.653198,881.257935 
	C510.964813,882.373474 509.198029,885.709900 507.023834,888.064514 
	C485.986786,900.378540 468.800598,917.455688 450.786865,933.511963 
	C433.717529,948.726318 415.412445,961.910522 392.751801,967.520203 
	C377.296173,971.346313 362.007782,971.103149 347.360718,964.064880 
	C321.000824,951.398376 310.272461,924.608337 322.346741,897.961487 
	C328.483521,884.418152 337.195312,871.988647 345.259796,859.386292 
	C353.655548,846.266296 359.535980,832.236816 362.911591,817.079285 
	C365.374451,806.020264 365.284698,794.946777 363.830048,783.398560 
	C367.926392,782.916321 370.242401,781.104065 370.904419,777.500427 
	C372.135498,770.799072 365.731873,770.447998 362.151550,767.528259 
	C362.650238,765.877625 363.547150,764.299988 363.480072,762.764465 
	C363.403290,761.007019 363.005219,758.556091 361.812317,757.682617 
	C357.624908,754.616516 352.809906,752.525269 351.873657,746.342896 
	C351.671631,745.008728 348.329498,743.909790 346.258698,743.262939 
	C345.720673,743.094788 344.522217,745.040710 343.627075,746.015625 
M329.026154,685.663330 
	C328.741974,686.567139 328.457794,687.470947 328.173615,688.374756 
	C328.824860,688.450134 329.476135,688.525574 330.127380,688.600952 
	C329.961395,687.519958 329.795410,686.438965 329.026154,685.663330 
z"/>
<path fill="#B8B8BA" opacity="1.000000" stroke="none" 
	d="
M829.875122,946.039551 
	C829.578064,946.002808 829.328735,945.873779 829.010620,945.093018 
	C827.933105,944.021301 826.972046,943.509033 826.011047,942.996765 
	C803.960144,926.427734 782.412415,909.128418 759.718262,893.492920 
	C736.560364,877.538025 710.665222,867.244751 682.635193,863.212036 
	C674.445251,862.033691 666.092163,861.988647 656.442627,861.330627 
	C702.352234,786.024414 747.970581,711.195740 794.439087,634.972717 
	C795.734131,642.334961 796.710815,648.214478 797.808105,654.071350 
	C804.016418,687.205994 818.947510,716.206360 839.873169,742.313843 
	C844.754700,748.404175 849.996338,754.205872 854.865234,760.618286 
	C853.611023,761.056458 851.979004,761.433228 851.607910,760.912109 
	C848.161499,756.072571 843.966492,758.561279 842.168640,761.318359 
	C839.304810,765.710327 837.680481,771.075806 836.365479,776.241699 
	C835.719971,778.777710 836.992981,781.784973 837.308228,784.588989 
	C837.497498,786.272583 838.219910,788.474548 837.452637,789.559326 
	C836.117615,791.446777 833.815369,792.650208 831.391846,794.554382 
	C830.381287,792.232361 829.862732,790.491577 828.903076,789.043030 
	C828.333130,788.182739 826.748169,787.078491 826.187744,787.333374 
	C825.241211,787.763733 823.952148,789.554199 824.214478,790.119141 
	C824.902222,791.600342 826.323853,792.753174 827.501465,793.990662 
	C828.582825,795.127136 830.673645,796.192078 830.686890,797.307922 
	C830.758362,803.341187 830.632263,809.362976 823.886658,812.683411 
	C822.286011,813.471252 820.413513,816.491272 820.796265,817.909912 
	C821.468994,820.403931 821.985901,823.646851 826.099548,824.225281 
	C828.753174,824.598450 833.205627,826.735840 833.292969,828.283264 
	C833.671509,834.995911 837.990784,838.497131 842.387207,842.219238 
	C846.513855,845.712891 847.096436,855.555664 843.201843,859.223816 
	C840.933655,861.359985 840.195312,863.020325 841.456177,866.417053 
	C844.709351,875.180969 843.258972,877.059875 834.096619,878.289307 
	C833.825806,878.325623 833.599121,878.691162 833.328674,878.923096 
	C833.569153,882.349854 833.609558,885.823181 834.156616,889.214783 
	C834.359680,890.474060 835.645264,891.640747 836.621643,892.675720 
	C838.507874,894.675354 840.525146,896.551453 842.488098,898.478760 
	C847.762573,900.874695 847.892456,901.551270 847.214600,908.396423 
	C846.811157,912.470459 845.415955,917.135620 850.081726,920.205444 
	C849.422668,921.692932 848.852539,922.979858 848.058289,924.772583 
	C849.347900,924.671814 850.124756,924.680115 850.874329,924.541199 
	C855.546936,923.674988 855.974243,924.290894 854.652161,928.926880 
	C854.074829,930.951660 854.089783,933.171936 854.017212,935.309631 
	C853.688843,944.983093 848.555542,952.379211 840.915039,954.073425 
	C840.915039,954.073425 841.008301,954.062195 840.941650,953.722168 
	C839.874023,952.934937 838.873047,952.487671 837.872070,952.040405 
	C836.334290,950.972351 834.796509,949.904297 833.072510,948.192017 
	C831.882629,947.045044 830.878906,946.542297 829.875122,946.039551 
z"/>
<path fill="#E4B047" opacity="1.000000" stroke="none" 
	d="
M495.556030,577.142944 
	C493.569733,578.114990 491.156738,579.029053 488.221741,580.140869 
	C489.503540,582.749451 490.588531,585.946594 492.542542,588.471008 
	C493.380768,589.553955 496.091461,589.710266 497.835632,589.464905 
	C502.001831,588.878784 507.122467,591.875488 507.963806,595.834229 
	C509.242950,601.853210 514.450134,605.302979 520.426453,604.123840 
	C520.893066,604.031738 521.407349,604.181396 522.259583,604.245911 
	C522.624939,605.365356 523.269409,606.547913 523.370728,607.775269 
	C524.189819,617.697388 532.428101,619.614685 539.434021,623.059387 
	C544.426575,625.514160 550.000854,627.474792 551.163879,634.287537 
	C551.475342,636.112183 553.357361,637.732788 554.691711,639.299377 
	C555.854065,640.664062 557.373291,641.724854 558.534668,643.090149 
	C560.561890,645.473145 561.108521,647.476135 556.993408,648.217407 
	C555.879822,648.418030 554.917419,649.457581 553.381104,650.432007 
	C556.954224,653.029602 559.283203,655.909119 563.898071,653.445068 
	C565.459595,652.611328 568.378113,654.319214 570.676514,654.865540 
	C569.827332,656.435486 568.802490,657.940125 568.186951,659.596863 
	C567.727844,660.832581 567.480042,662.343811 567.785400,663.571350 
	C567.911133,664.076538 569.990234,664.699036 570.742249,664.342712 
	C574.419739,662.599915 577.949402,660.545105 581.903076,658.398804 
	C582.643860,662.876587 583.251770,666.551147 583.947266,670.755005 
	C584.791199,670.589600 586.028137,670.040344 587.176636,670.186462 
	C589.529602,670.485962 592.126892,670.653381 594.095337,671.789917 
	C597.493286,673.751892 600.488342,676.411560 603.652405,678.778564 
	C603.904419,678.428528 604.156433,678.078552 604.408447,677.728577 
	C604.176880,680.179260 602.817566,683.545410 603.924744,684.909424 
	C607.278259,689.041138 611.556458,692.431030 615.532288,696.046387 
	C620.057007,700.160583 624.602722,704.253845 629.222656,708.260132 
	C631.338562,710.094971 633.653748,711.700012 636.770752,714.094849 
	C637.540771,710.764587 638.001038,708.773987 638.523132,706.515808 
	C641.807617,705.584412 644.266907,705.785522 646.966187,709.041504 
	C649.602966,712.221985 652.647339,717.612549 658.569275,712.628052 
	C659.146912,712.141846 662.030518,714.396362 663.844238,715.377686 
	C665.471313,716.258118 667.038879,717.281128 668.737183,717.991211 
	C675.228149,720.705322 682.065369,722.639282 685.092529,730.288025 
	C686.540344,733.946289 689.183350,737.219055 691.737244,740.290466 
	C692.374573,741.056885 694.927063,740.795227 696.316040,740.264648 
	C700.227173,738.770569 702.502441,739.143250 702.019287,744.047119 
	C701.955322,744.696289 701.862244,745.610901 702.220032,745.991577 
	C705.687012,749.680176 702.615479,751.909180 701.065125,753.532593 
	C701.065125,756.669861 701.065125,758.957458 701.023804,761.604004 
	C700.982483,761.963013 701.003296,761.986633 700.692566,762.149536 
	C698.739319,763.872742 697.354492,766.122986 695.401611,766.852539 
	C691.073792,768.469360 690.592224,771.513245 690.985168,775.321777 
	C691.118774,776.617737 691.063904,777.933105 691.095215,779.239624 
	C681.930176,794.365540 672.765137,809.491455 663.000427,824.677612 
	C660.957214,824.114563 659.513672,823.491211 657.885986,822.788452 
	C656.033813,826.764771 658.841064,827.368225 660.900513,828.422241 
	C658.893921,831.810486 656.887329,835.198730 654.209961,838.785645 
	C649.380249,838.832581 648.489563,835.580078 647.777100,832.516113 
	C646.650818,827.672791 642.576660,825.883911 638.991455,823.653137 
	C638.241943,823.186768 636.585876,823.784668 635.541809,824.291992 
	C634.431213,824.831543 633.551392,825.846130 632.570801,826.653381 
	C632.337830,825.052734 631.704651,823.388123 631.948608,821.863831 
	C632.616272,817.692261 633.442017,813.772705 629.218506,810.685242 
	C626.866943,808.966187 624.955566,806.617859 622.955383,804.451904 
	C620.343994,801.624268 618.907166,797.331543 613.837402,797.678711 
	C613.225281,797.720642 612.587097,796.278137 611.839722,795.673462 
	C610.167236,794.320374 608.436035,793.037354 606.695251,791.771912 
	C604.985229,790.528870 603.182068,789.409546 601.512451,788.116272 
	C598.799316,786.014526 595.856750,784.094360 593.565613,781.590088 
	C590.331787,778.055359 587.603455,774.058105 584.566162,770.138794 
	C586.865051,769.044312 588.336487,768.343872 589.807861,767.643372 
	C589.648315,767.057800 589.488770,766.472229 589.329224,765.886658 
	C587.149170,766.331787 584.982117,767.020630 582.784607,767.137634 
	C581.284790,767.217468 578.459900,766.606628 578.418884,766.119812 
	C578.036316,761.581665 574.926392,761.865051 571.861511,762.012451 
	C567.784241,762.208618 565.448425,760.331482 565.467529,756.261047 
	C565.500732,749.174744 563.627563,747.508911 557.096924,749.560547 
	C556.472290,748.196228 555.836792,746.808105 554.952454,744.876343 
	C552.070496,750.106201 549.061035,747.035706 546.329468,745.590149 
	C543.857788,744.282166 540.708557,743.428528 541.718872,739.119751 
	C542.847107,734.308716 538.735352,733.336365 535.448669,732.016357 
	C533.971924,731.423218 532.053894,731.330566 531.031677,730.312378 
	C527.489197,726.783997 523.890381,723.205261 521.016174,719.147522 
	C518.819275,716.046021 516.718811,713.719910 512.839722,712.659851 
	C509.497009,711.746338 506.715820,705.653076 508.532501,703.761658 
	C513.630554,698.453918 507.650879,697.392151 505.907318,694.688538 
	C505.475433,695.306885 505.635071,695.783936 505.585083,696.237854 
	C505.396301,697.951538 505.139435,699.657715 504.908081,701.366699 
	C503.290344,700.921143 501.569733,700.694214 500.073395,699.990479 
	C494.751984,697.487793 490.718964,693.904846 489.852417,687.592896 
	C489.707214,686.535034 488.084076,685.762451 487.512573,684.665894 
	C485.507629,680.818909 479.586853,678.193359 483.975586,672.416138 
	C481.781403,670.916199 479.230347,670.024719 478.096497,668.235229 
	C474.872650,663.147400 473.385101,657.091797 468.039795,653.204102 
	C464.033234,650.290161 460.723511,646.407043 457.168945,642.889282 
	C456.002960,641.735352 455.116028,640.302673 453.974670,639.119873 
	C449.821045,634.815613 446.305145,628.627869 441.238495,626.817566 
	C435.817932,624.880798 434.185791,621.640747 433.203064,617.511414 
	C431.727112,611.309937 429.602356,606.551086 422.712860,604.461243 
	C420.033936,603.648621 417.764893,600.123352 416.324097,597.313354 
	C415.804901,596.300598 418.620300,593.880066 419.264587,591.891602 
	C420.045715,589.480774 421.059784,586.464172 420.217468,584.440308 
	C419.622620,583.011047 415.829712,581.735046 413.945862,582.228394 
	C406.634949,584.143372 401.532135,581.611877 397.403931,575.770996 
	C398.712189,575.130066 399.854431,574.570557 400.996643,574.010986 
	C401.450226,573.993835 401.903809,573.976685 402.772095,574.415588 
	C405.456848,574.916870 407.726868,574.962097 409.996887,575.007324 
	C410.451447,575.003967 410.906036,575.000549 411.779724,575.450806 
	C414.471588,575.921570 416.744263,575.938538 419.016968,575.955566 
	C440.086243,576.604797 461.153870,577.320190 482.226166,577.848083 
	C486.518188,577.955627 490.827850,577.357666 495.556030,577.142944 
M448.367554,627.638428 
	C448.851715,626.668396 449.335907,625.698364 449.820099,624.728333 
	C449.245300,624.580627 448.670502,624.432922 448.095703,624.285217 
	C447.966644,625.379944 447.837616,626.474609 448.367554,627.638428 
z"/>
<path fill="#DFAA40" opacity="1.000000" stroke="none" 
	d="
M400.603699,573.898621 
	C399.854431,574.570557 398.712189,575.130066 397.403931,575.770996 
	C401.532135,581.611877 406.634949,584.143372 413.945862,582.228394 
	C415.829712,581.735046 419.622620,583.011047 420.217468,584.440308 
	C421.059784,586.464172 420.045715,589.480774 419.264587,591.891602 
	C418.620300,593.880066 415.804901,596.300598 416.324097,597.313354 
	C417.764893,600.123352 420.033936,603.648621 422.712860,604.461243 
	C429.602356,606.551086 431.727112,611.309937 433.203064,617.511414 
	C434.185791,621.640747 435.817932,624.880798 441.238495,626.817566 
	C446.305145,628.627869 449.821045,634.815613 453.974670,639.119873 
	C455.116028,640.302673 456.002960,641.735352 457.168945,642.889282 
	C460.723511,646.407043 464.033234,650.290161 468.039795,653.204102 
	C473.385101,657.091797 474.872650,663.147400 478.096497,668.235229 
	C479.230347,670.024719 481.781403,670.916199 483.975586,672.416138 
	C479.586853,678.193359 485.507629,680.818909 487.512573,684.665894 
	C488.084076,685.762451 489.707214,686.535034 489.852417,687.592896 
	C490.718964,693.904846 494.751984,697.487793 500.073395,699.990479 
	C501.569733,700.694214 503.290344,700.921143 504.908081,701.366699 
	C505.139435,699.657715 505.396301,697.951538 505.585083,696.237854 
	C505.635071,695.783936 505.475433,695.306885 505.907318,694.688538 
	C507.650879,697.392151 513.630554,698.453918 508.532501,703.761658 
	C506.715820,705.653076 509.497009,711.746338 512.839722,712.659851 
	C516.718811,713.719910 518.819275,716.046021 521.016174,719.147522 
	C523.890381,723.205261 527.489197,726.783997 531.031677,730.312378 
	C532.053894,731.330566 533.971924,731.423218 535.448669,732.016357 
	C538.735352,733.336365 542.847107,734.308716 541.718872,739.119751 
	C540.708557,743.428528 543.857788,744.282166 546.329468,745.590149 
	C549.061035,747.035706 552.070496,750.106201 554.952454,744.876343 
	C555.836792,746.808105 556.472290,748.196228 557.096924,749.560547 
	C563.627563,747.508911 565.500732,749.174744 565.467529,756.261047 
	C565.448425,760.331482 567.784241,762.208618 571.861511,762.012451 
	C574.926392,761.865051 578.036316,761.581665 578.418884,766.119812 
	C578.459900,766.606628 581.284790,767.217468 582.784607,767.137634 
	C584.982117,767.020630 587.149170,766.331787 589.329224,765.886658 
	C589.488770,766.472229 589.648315,767.057800 589.807861,767.643372 
	C588.336487,768.343872 586.865051,769.044312 584.566162,770.138794 
	C587.603455,774.058105 590.331787,778.055359 593.565613,781.590088 
	C595.856750,784.094360 598.799316,786.014526 601.512451,788.116272 
	C603.182068,789.409546 604.985229,790.528870 606.695251,791.771912 
	C608.436035,793.037354 610.167236,794.320374 611.839722,795.673462 
	C612.587097,796.278137 613.225281,797.720642 613.837402,797.678711 
	C618.907166,797.331543 620.343994,801.624268 622.955383,804.451904 
	C624.955566,806.617859 626.866943,808.966187 629.218506,810.685242 
	C633.442017,813.772705 632.616272,817.692261 631.948608,821.863831 
	C631.704651,823.388123 632.337830,825.052734 632.570801,826.653381 
	C633.551392,825.846130 634.431213,824.831543 635.541809,824.291992 
	C636.585876,823.784668 638.241943,823.186768 638.991455,823.653137 
	C642.576660,825.883911 646.650818,827.672791 647.777100,832.516113 
	C648.489563,835.580078 649.380249,838.832581 653.947632,838.982178 
	C650.256592,845.973145 646.253479,853.026672 641.958069,859.897522 
	C641.279236,860.983276 639.309204,861.721680 637.886536,861.808594 
	C627.633728,862.435303 617.368164,862.852661 606.473206,863.055115 
	C604.896301,863.139771 603.952881,863.505737 603.009399,863.871643 
	C600.698059,864.030701 598.386658,864.189758 595.426575,864.043701 
	C593.307739,863.263733 591.837646,862.788940 590.161133,862.247375 
	C594.957458,857.832153 594.957458,857.832153 593.163086,855.141296 
	C592.489075,855.522766 591.795715,855.910095 591.106995,856.305664 
	C583.904785,860.441284 575.674072,856.222046 574.605286,848.104553 
	C574.363464,846.268372 572.700745,844.619263 571.271118,842.159729 
	C568.159607,846.862976 564.795166,847.970825 560.505798,846.157227 
	C559.749207,845.837280 558.603882,846.495178 557.627991,846.626404 
	C547.970520,847.924744 543.456421,844.303406 543.709534,835.198425 
	C544.513733,835.310730 545.314087,835.600403 546.054565,835.489746 
	C547.718506,835.240967 549.495239,835.049194 550.906982,834.261902 
	C551.299072,834.043335 550.478699,831.827148 550.376709,830.514893 
	C549.957031,825.114807 544.842773,823.957275 541.855286,820.856262 
	C537.992249,816.846252 531.387695,814.909729 531.716858,808.878418 
	C525.152527,801.727783 517.937012,803.005615 509.955963,806.303406 
	C510.528778,804.519104 510.574738,803.639832 511.023560,803.088440 
	C517.627136,794.976196 508.775574,792.920898 505.280701,789.005981 
	C504.234009,787.833435 501.681183,788.016541 499.825500,787.550110 
	C498.967499,787.334473 498.126648,787.050720 496.980225,786.709045 
	C497.780365,785.034912 498.397125,783.744446 499.432098,781.578979 
	C493.697906,776.450989 487.916168,771.280518 481.516663,765.557617 
	C481.516663,767.494568 481.516663,768.514099 481.516663,769.621521 
	C474.246307,767.401001 474.246307,767.401001 476.351959,762.094177 
	C474.331909,761.549927 471.244202,761.637024 470.470459,760.341858 
	C467.869354,755.987793 466.170135,751.104004 463.961395,746.501892 
	C463.093689,744.694031 462.067291,742.731079 460.550232,741.581726 
	C459.954620,741.130493 457.818237,742.713013 456.265167,743.423462 
	C451.762726,741.497864 444.471710,742.417969 445.343781,734.052185 
	C446.839386,735.338867 447.991180,736.573303 449.143005,737.807800 
	C449.558289,737.743408 449.973572,737.679077 450.388855,737.614685 
	C450.388855,735.234192 450.696503,732.786987 450.202911,730.513611 
	C450.053253,729.824219 447.688782,729.615601 446.338745,729.186768 
	C445.892548,730.791199 445.446289,732.395630 444.613678,733.992920 
	C442.454926,733.402649 440.682526,732.819397 438.591644,732.131348 
	C439.934174,729.741394 441.180206,728.117676 441.787262,726.282715 
	C442.454315,724.266296 443.514038,720.794434 442.692261,720.155090 
	C439.698029,717.825745 438.153442,712.352905 432.814911,714.250671 
	C425.049957,717.010986 420.166840,713.363708 415.634766,707.568848 
	C412.705933,703.823975 411.904327,700.435303 415.172699,696.072144 
	C411.679199,692.573303 408.201355,689.357056 405.084229,685.822632 
	C403.999115,684.592346 402.907104,682.254578 403.364227,680.974792 
	C405.125702,676.043274 402.423187,672.751465 400.029572,668.914978 
	C396.107452,669.774048 392.351715,670.596619 388.595947,671.419250 
	C386.794586,670.896729 385.054077,659.282471 386.564331,657.276917 
	C386.934875,656.784912 387.588318,656.478699 388.155396,656.166321 
	C391.524231,654.310059 391.608032,649.572693 388.383331,647.261658 
	C386.011597,645.561951 383.791199,643.652405 381.443604,641.917236 
	C379.364899,640.380676 377.203766,638.955750 375.194122,637.561462 
	C379.485443,633.622925 376.520355,629.120117 374.166840,624.797913 
	C378.118561,621.201965 377.180695,615.396362 371.664154,609.251343 
	C370.024078,607.424438 368.236664,604.494690 365.090302,607.551575 
	C366.200470,609.366943 367.055969,610.765808 367.911469,612.164673 
	C365.038361,611.407410 363.088531,609.696045 360.850464,609.135315 
	C357.615265,608.324768 356.460175,607.368591 358.146271,604.013672 
	C358.559692,603.191162 357.149902,600.304993 356.431641,600.249023 
	C352.093994,599.910828 349.724915,597.352722 347.303467,594.132690 
	C345.801178,592.135010 343.297729,590.610413 340.933807,589.594910 
	C334.822113,586.969543 333.553406,582.501648 337.807739,577.586548 
	C338.387329,576.916931 338.596344,575.926636 339.252167,574.476135 
	C336.249847,573.926819 333.730194,573.335510 331.176331,573.038330 
	C328.997131,572.784729 326.778625,572.869141 324.577515,572.803955 
	C324.756805,570.391602 324.924469,567.978149 325.130005,565.567932 
	C325.156097,565.262268 325.380981,564.973572 325.505768,564.694885 
	C327.016968,564.125061 328.507874,563.562866 329.998779,563.000610 
	C330.177704,562.982910 330.356598,562.965210 330.947815,563.321045 
	C332.585419,563.770264 333.810699,563.845886 335.035980,563.921570 
	C335.483704,563.925903 335.931396,563.930298 336.771210,564.389160 
	C338.773438,564.901917 340.383606,564.960205 341.993744,565.018555 
	C342.167542,564.996399 342.341370,564.974182 342.829346,565.375854 
	C344.449280,565.825073 345.755005,565.850464 347.060760,565.875854 
	C353.467865,567.157227 359.837524,568.689880 366.292206,569.652283 
	C373.302277,570.697571 380.397919,571.157104 387.443756,571.978882 
	C391.711670,572.476624 395.955902,573.176941 400.603699,573.898621 
M337.961060,572.241760 
	C338.664215,571.512146 339.367340,570.782532 340.070496,570.052856 
	C339.568695,569.748413 339.066895,569.443970 338.565125,569.139526 
	C338.214233,570.023376 337.863342,570.907288 337.961060,572.241760 
z"/>
<path fill="#B2B3B5" opacity="1.000000" stroke="none" 
	d="
M841.066284,954.376953 
	C848.555542,952.379211 853.688843,944.983093 854.017212,935.309631 
	C854.089783,933.171936 854.074829,930.951660 854.652161,928.926880 
	C855.974243,924.290894 855.546936,923.674988 850.874329,924.541199 
	C850.124756,924.680115 849.347900,924.671814 848.058289,924.772583 
	C848.852539,922.979858 849.422668,921.692932 850.081726,920.205444 
	C845.415955,917.135620 846.811157,912.470459 847.214600,908.396423 
	C847.892456,901.551270 847.762573,900.874695 842.488098,898.478760 
	C840.525146,896.551453 838.507874,894.675354 836.621643,892.675720 
	C835.645264,891.640747 834.359680,890.474060 834.156616,889.214783 
	C833.609558,885.823181 833.569153,882.349854 833.328674,878.923096 
	C833.599121,878.691162 833.825806,878.325623 834.096619,878.289307 
	C843.258972,877.059875 844.709351,875.180969 841.456177,866.417053 
	C840.195312,863.020325 840.933655,861.359985 843.201843,859.223816 
	C847.096436,855.555664 846.513855,845.712891 842.387207,842.219238 
	C837.990784,838.497131 833.671509,834.995911 833.292969,828.283264 
	C833.205627,826.735840 828.753174,824.598450 826.099548,824.225281 
	C821.985901,823.646851 821.468994,820.403931 820.796265,817.909912 
	C820.413513,816.491272 822.286011,813.471252 823.886658,812.683411 
	C830.632263,809.362976 830.758362,803.341187 830.686890,797.307922 
	C830.673645,796.192078 828.582825,795.127136 827.501465,793.990662 
	C826.323853,792.753174 824.902222,791.600342 824.214478,790.119141 
	C823.952148,789.554199 825.241211,787.763733 826.187744,787.333374 
	C826.748169,787.078491 828.333130,788.182739 828.903076,789.043030 
	C829.862732,790.491577 830.381287,792.232361 831.391846,794.554382 
	C833.815369,792.650208 836.117615,791.446777 837.452637,789.559326 
	C838.219910,788.474548 837.497498,786.272583 837.308228,784.588989 
	C836.992981,781.784973 835.719971,778.777710 836.365479,776.241699 
	C837.680481,771.075806 839.304810,765.710327 842.168640,761.318359 
	C843.966492,758.561279 848.161499,756.072571 851.607910,760.912109 
	C851.979004,761.433228 853.611023,761.056458 854.987061,760.934692 
	C879.615784,785.137146 907.648987,804.898804 934.841553,825.736450 
	C951.328674,838.370422 966.933655,852.154419 977.178162,870.805054 
	C990.936890,895.853455 992.530518,921.133789 976.136841,945.341492 
	C962.031860,966.169495 941.924988,977.914978 916.398254,980.198364 
	C893.205505,982.272888 872.872253,974.833984 853.646423,962.987488 
	C849.406860,960.375244 845.355591,957.457581 841.066284,954.376953 
M835.019043,822.323608 
	C835.271057,823.036072 835.523071,823.748474 835.775024,824.460938 
	C837.482605,823.056335 839.190186,821.651794 840.897766,820.247253 
	C840.480591,819.660767 840.063477,819.074280 839.646301,818.487793 
	C838.118713,819.510925 836.591064,820.533997 835.019043,822.323608 
M849.474976,855.686096 
	C850.021545,856.024658 850.568176,856.363281 851.114807,856.701904 
	C851.249573,856.427795 851.384338,856.153687 851.519043,855.879578 
	C850.983704,855.674500 850.448425,855.469482 849.474976,855.686096 
z"/>
<path fill="#D9A33A" opacity="1.000000" stroke="none" 
	d="
M444.613647,733.992920 
	C444.471710,742.417969 451.762726,741.497864 456.265167,743.423462 
	C457.818237,742.713013 459.954620,741.130493 460.550232,741.581726 
	C462.067291,742.731079 463.093689,744.694031 463.961395,746.501892 
	C466.170135,751.104004 467.869354,755.987793 470.470459,760.341858 
	C471.244202,761.637024 474.331909,761.549927 476.351959,762.094177 
	C474.246307,767.401001 474.246307,767.401001 481.516663,769.621521 
	C481.516663,768.514099 481.516663,767.494568 481.516663,765.557617 
	C487.916168,771.280518 493.697906,776.450989 499.432098,781.578979 
	C498.397125,783.744446 497.780365,785.034912 496.980225,786.709045 
	C498.126648,787.050720 498.967499,787.334473 499.825500,787.550110 
	C501.681183,788.016541 504.234009,787.833435 505.280701,789.005981 
	C508.775574,792.920898 517.627136,794.976196 511.023560,803.088440 
	C510.574738,803.639832 510.528778,804.519104 509.955963,806.303406 
	C517.937012,803.005615 525.152527,801.727783 531.716858,808.878418 
	C531.387695,814.909729 537.992249,816.846252 541.855286,820.856262 
	C544.842773,823.957275 549.957031,825.114807 550.376709,830.514893 
	C550.478699,831.827148 551.299072,834.043335 550.906982,834.261902 
	C549.495239,835.049194 547.718506,835.240967 546.054565,835.489746 
	C545.314087,835.600403 544.513733,835.310730 543.709534,835.198425 
	C543.456421,844.303406 547.970520,847.924744 557.627991,846.626404 
	C558.603882,846.495178 559.749207,845.837280 560.505798,846.157227 
	C564.795166,847.970825 568.159607,846.862976 571.271118,842.159729 
	C572.700745,844.619263 574.363464,846.268372 574.605286,848.104553 
	C575.674072,856.222046 583.904785,860.441284 591.106995,856.305664 
	C591.795715,855.910095 592.489075,855.522766 593.163086,855.141296 
	C594.957458,857.832153 594.957458,857.832153 590.161133,862.247375 
	C591.837646,862.788940 593.307739,863.263733 594.995728,864.065430 
	C582.666382,866.262329 570.054443,867.782898 557.587280,870.086487 
	C540.042908,873.328186 523.346008,879.207275 507.372192,888.003662 
	C509.198029,885.709900 510.964813,882.373474 513.653198,881.257935 
	C516.765076,879.966675 518.197327,878.106445 517.745667,875.478882 
	C517.510010,874.107910 514.864746,873.197754 513.385925,871.984192 
	C510.021301,869.223083 506.685059,866.426331 503.379944,863.594238 
	C502.267731,862.641174 500.925903,861.704468 500.344879,860.455261 
	C499.785370,859.252380 499.427368,857.112488 500.093750,856.320068 
	C504.297302,851.321228 504.040375,848.533386 498.675476,844.161560 
	C496.828278,842.656372 495.392517,840.597412 493.435547,839.290527 
	C491.742889,838.160217 489.621704,837.567871 487.609680,837.049133 
	C485.625183,836.537659 483.539886,836.416992 481.139893,836.073486 
	C485.179382,830.178589 483.479309,825.771912 477.162476,821.480042 
	C473.703064,819.129517 470.989929,815.694031 467.878235,812.814819 
	C464.175293,809.388489 460.198029,806.420837 454.717957,807.653809 
	C452.157074,808.229980 450.683990,807.750671 449.774078,805.054443 
	C449.369354,803.855164 447.773346,803.057983 446.359009,802.039185 
	C445.498413,798.640991 444.996857,795.282043 444.362976,791.037048 
	C442.737396,792.434875 440.933655,794.566284 438.644531,795.788818 
	C436.413818,796.980225 433.303925,798.618713 431.852173,793.542847 
	C433.288635,793.676453 434.341614,793.994141 435.287872,793.797607 
	C436.148865,793.618835 437.120605,793.036804 437.603607,792.331299 
	C437.885742,791.919250 437.517151,790.493347 437.068146,790.268250 
	C436.155060,789.810669 434.443665,789.334778 434.014801,789.781677 
	C431.027588,792.893921 428.666534,792.454956 426.405670,789.024658 
	C426.086365,788.540222 425.311462,788.168640 424.703094,788.090515 
	C416.141388,786.992065 414.595581,779.470093 411.480988,773.486084 
	C411.078552,772.712830 412.087036,771.183167 412.487122,770.019470 
	C413.073975,768.312561 413.701660,766.619690 414.381287,764.727844 
	C410.890747,764.463684 408.312622,764.489807 405.846466,763.977051 
	C404.807587,763.761108 403.552338,762.575867 403.170380,761.544312 
	C401.089050,755.923157 400.773010,755.775146 395.861786,759.898010 
	C393.493286,754.522217 391.247009,749.221741 388.819946,744.005371 
	C387.704620,741.608215 386.532898,739.099915 384.778503,737.205322 
	C384.079285,736.450256 381.408813,736.671143 380.204407,737.394531 
	C376.738220,739.476379 373.848511,740.607056 370.949768,736.490723 
	C368.257080,732.667053 367.946503,728.146729 370.677246,725.117493 
	C373.607727,721.866577 372.285950,718.487610 366.971558,716.123108 
	C365.039948,719.286804 363.057312,722.467468 361.142609,725.688538 
	C359.203094,728.951538 356.951324,728.763367 355.907135,725.457581 
	C354.742096,721.769226 353.864410,717.682190 354.220886,713.896606 
	C354.703156,708.774597 354.994598,704.406067 350.561340,700.564941 
	C348.603333,698.868469 348.475830,695.102051 346.551849,693.314270 
	C342.920532,689.939880 338.884308,686.692322 334.445770,684.605835 
	C331.558044,683.248291 330.720703,681.964966 330.991302,679.207642 
	C331.345917,675.594116 330.556610,673.054565 326.535431,671.474915 
	C322.917694,670.053711 319.481781,667.579956 316.739990,664.805420 
	C315.624908,663.677063 316.555817,660.526978 316.555817,657.253540 
	C315.757721,657.072998 313.701660,656.608032 312.028931,656.229675 
	C312.028931,651.959473 311.965668,647.491028 312.082001,643.027283 
	C312.105408,642.129211 312.734314,641.204529 313.219055,640.370667 
	C313.974274,639.071472 314.844971,637.839478 315.666748,636.579041 
	C314.086884,636.143250 312.506958,635.707458 310.428192,635.134094 
	C310.218384,634.296509 309.870605,632.908203 309.288971,630.586487 
	C307.222290,632.038818 305.517456,633.236877 303.692688,634.519165 
	C299.192719,630.952942 297.155762,626.173706 295.727997,620.341370 
	C294.217194,614.169678 295.678986,610.384583 301.101837,607.556091 
	C295.741058,600.520386 290.695465,593.898315 284.849670,586.226013 
	C280.997986,584.736938 274.481415,583.869507 270.469482,580.236267 
	C265.762421,575.973511 260.205811,576.946350 255.201416,574.357300 
	C267.024872,563.763245 281.257935,559.152222 296.720184,559.382996 
	C307.582825,559.545044 318.418457,561.515930 329.632446,562.839844 
	C328.507874,563.562866 327.016968,564.125061 325.505768,564.694885 
	C325.380981,564.973572 325.156097,565.262268 325.130005,565.567932 
	C324.924469,567.978149 324.756805,570.391602 324.577515,572.803955 
	C326.778625,572.869141 328.997131,572.784729 331.176331,573.038330 
	C333.730194,573.335510 336.249847,573.926819 339.252167,574.476135 
	C338.596344,575.926636 338.387329,576.916931 337.807739,577.586548 
	C333.553406,582.501648 334.822113,586.969543 340.933807,589.594910 
	C343.297729,590.610413 345.801178,592.135010 347.303467,594.132690 
	C349.724915,597.352722 352.093994,599.910828 356.431641,600.249023 
	C357.149902,600.304993 358.559692,603.191162 358.146271,604.013672 
	C356.460175,607.368591 357.615265,608.324768 360.850464,609.135315 
	C363.088531,609.696045 365.038361,611.407410 367.911469,612.164673 
	C367.055969,610.765808 366.200470,609.366943 365.090302,607.551575 
	C368.236664,604.494690 370.024078,607.424438 371.664154,609.251343 
	C377.180695,615.396362 378.118561,621.201965 374.166840,624.797913 
	C376.520355,629.120117 379.485443,633.622925 375.194122,637.561462 
	C377.203766,638.955750 379.364899,640.380676 381.443604,641.917236 
	C383.791199,643.652405 386.011597,645.561951 388.383331,647.261658 
	C391.608032,649.572693 391.524231,654.310059 388.155396,656.166321 
	C387.588318,656.478699 386.934875,656.784912 386.564331,657.276917 
	C385.054077,659.282471 386.794586,670.896729 388.595947,671.419250 
	C392.351715,670.596619 396.107452,669.774048 400.029572,668.914978 
	C402.423187,672.751465 405.125702,676.043274 403.364227,680.974792 
	C402.907104,682.254578 403.999115,684.592346 405.084229,685.822632 
	C408.201355,689.357056 411.679199,692.573303 415.172699,696.072144 
	C411.904327,700.435303 412.705933,703.823975 415.634766,707.568848 
	C420.166840,713.363708 425.049957,717.010986 432.814911,714.250671 
	C438.153442,712.352905 439.698029,717.825745 442.692261,720.155090 
	C443.514038,720.794434 442.454315,724.266296 441.787262,726.282715 
	C441.180206,728.117676 439.934174,729.741394 438.591644,732.131348 
	C440.682526,732.819397 442.454926,733.402649 444.613647,733.992920 
z"/>
<path fill="#D59D34" opacity="1.000000" stroke="none" 
	d="
M801.078247,248.634979 
	C824.504211,230.381729 850.957642,219.040527 880.254700,214.538803 
	C903.597229,210.952026 925.818115,214.476517 945.693237,227.724304 
	C975.407227,247.530304 992.115295,285.706177 965.852783,326.303864 
	C959.855103,335.575226 951.830627,343.535431 944.421143,351.848846 
	C944.349365,350.333069 944.595276,349.067566 944.946655,347.259552 
	C937.131348,347.065216 934.178772,342.782990 933.643372,335.510010 
	C933.499329,333.553314 930.193420,330.665253 927.954163,330.242523 
	C920.897766,328.910370 913.658569,328.546173 906.307678,327.788483 
	C906.307678,329.407745 906.307678,331.072845 906.307678,332.737946 
	C905.825378,333.009552 905.343140,333.281189 904.860840,333.552795 
	C903.571106,331.635620 902.299500,329.705811 900.983887,327.806549 
	C900.328430,326.860321 899.378418,325.105286 898.932251,325.215546 
	C897.557983,325.555237 896.194275,326.443542 895.149353,327.453033 
	C894.286987,328.286194 893.993530,330.457428 893.259155,330.550781 
	C888.961487,331.097168 884.608276,331.206757 878.539673,331.566528 
	C885.451050,325.398590 879.799072,322.498474 876.575500,318.720520 
	C881.023132,314.664459 888.973022,313.750122 887.313965,305.070953 
	C884.383240,305.517090 881.429138,305.966827 878.413025,306.425964 
	C878.971130,308.333069 879.412354,309.840820 879.921692,311.581055 
	C876.898315,309.814667 874.563965,307.359283 872.134644,307.261475 
	C867.263733,307.065308 865.695740,303.733368 863.622864,300.441528 
	C865.560120,300.761139 867.138794,301.935211 868.879150,302.270752 
	C870.045654,302.495697 871.441406,301.531128 872.734619,301.098816 
	C871.932678,300.081512 871.277039,298.879395 870.289001,298.097137 
	C869.226929,297.256226 867.407654,297.128510 866.694397,296.133575 
	C864.026062,292.411316 861.786804,293.838318 860.324219,296.776764 
	C858.638489,300.163513 856.135437,299.661713 854.383972,297.951385 
	C851.309753,294.949463 848.860229,295.428864 845.930908,297.831482 
	C845.190979,298.438416 843.476440,298.910278 842.978943,298.503510 
	C842.297302,297.946259 842.051453,296.466248 842.137390,295.424500 
	C842.625793,289.507019 837.530945,281.874084 832.038086,279.949615 
	C827.880676,278.493073 825.129211,275.821320 825.807007,270.790039 
	C825.959045,269.661621 825.226990,268.316803 824.648376,267.203339 
	C821.465942,261.078949 815.236450,261.564331 810.002319,259.892700 
	C809.577271,260.201294 809.152222,260.509888 808.727173,260.818481 
	C809.655212,263.363342 810.583252,265.908173 811.600708,268.698059 
	C807.441101,271.344299 803.084167,274.116058 797.512939,277.660370 
	C794.882202,275.888763 790.842529,273.645142 787.418274,270.688843 
	C785.262085,268.827362 784.496765,266.138672 788.658630,264.820923 
	C789.925293,264.419861 791.436035,263.202850 791.862488,262.011414 
	C793.659973,256.990234 796.832581,255.999313 801.608215,257.670227 
	C805.329407,258.972168 806.886047,256.772125 805.754639,253.588150 
	C805.058960,251.630386 802.693787,250.265884 801.078247,248.634979 
M903.104248,324.805756 
	C905.566895,324.355286 908.029602,323.904785 910.492249,323.454315 
	C907.662476,322.951843 904.116028,318.409546 903.104248,324.805756 
M887.344238,299.414154 
	C888.409424,299.722351 889.474548,300.030548 890.539734,300.338715 
	C890.478638,299.581909 890.417603,298.825073 890.356506,298.068268 
	C889.340698,298.285461 888.324890,298.502625 887.344238,299.414154 
M892.845215,306.605743 
	C892.202759,306.345856 891.560364,306.085938 890.917908,305.826019 
	C890.824951,306.372711 890.731995,306.919373 890.639038,307.466034 
	C891.318726,307.384857 891.998474,307.303680 892.845215,306.605743 
M856.908997,292.404022 
	C857.007996,291.752411 857.106995,291.100800 857.205933,290.449219 
	C856.668152,290.672485 856.130371,290.895782 855.592529,291.119019 
	C855.855469,291.637543 856.118408,292.156067 856.908997,292.404022 
M928.704041,325.566986 
	C928.989136,325.294952 929.274292,325.022888 929.559448,324.750854 
	C929.446716,324.632843 929.242065,324.406036 929.234375,324.412506 
	C928.933655,324.666412 928.650818,324.941589 928.704041,325.566986 
z"/>
<path fill="#D9A33A" opacity="1.000000" stroke="none" 
	d="
M800.784729,248.739716 
	C802.693787,250.265884 805.058960,251.630386 805.754639,253.588150 
	C806.886047,256.772125 805.329407,258.972168 801.608215,257.670227 
	C796.832581,255.999313 793.659973,256.990234 791.862488,262.011414 
	C791.436035,263.202850 789.925293,264.419861 788.658630,264.820923 
	C784.496765,266.138672 785.262085,268.827362 787.418274,270.688843 
	C790.842529,273.645142 794.882202,275.888763 797.512939,277.660370 
	C803.084167,274.116058 807.441101,271.344299 811.600708,268.698059 
	C810.583252,265.908173 809.655212,263.363342 808.727173,260.818481 
	C809.152222,260.509888 809.577271,260.201294 810.002319,259.892700 
	C815.236450,261.564331 821.465942,261.078949 824.648376,267.203339 
	C825.226990,268.316803 825.959045,269.661621 825.807007,270.790039 
	C825.129211,275.821320 827.880676,278.493073 832.038086,279.949615 
	C837.530945,281.874084 842.625793,289.507019 842.137390,295.424500 
	C842.051453,296.466248 842.297302,297.946259 842.978943,298.503510 
	C843.476440,298.910278 845.190979,298.438416 845.930908,297.831482 
	C848.860229,295.428864 851.309753,294.949463 854.383972,297.951385 
	C856.135437,299.661713 858.638489,300.163513 860.324219,296.776764 
	C861.786804,293.838318 864.026062,292.411316 866.694397,296.133575 
	C867.407654,297.128510 869.226929,297.256226 870.289001,298.097137 
	C871.277039,298.879395 871.932678,300.081512 872.734619,301.098816 
	C871.441406,301.531128 870.045654,302.495697 868.879150,302.270752 
	C867.138794,301.935211 865.560120,300.761139 863.622864,300.441528 
	C865.695740,303.733368 867.263733,307.065308 872.134644,307.261475 
	C874.563965,307.359283 876.898315,309.814667 879.921692,311.581055 
	C879.412354,309.840820 878.971130,308.333069 878.413025,306.425964 
	C881.429138,305.966827 884.383240,305.517090 887.313965,305.070953 
	C888.973022,313.750122 881.023132,314.664459 876.575500,318.720520 
	C879.799072,322.498474 885.451050,325.398590 878.539673,331.566528 
	C884.608276,331.206757 888.961487,331.097168 893.259155,330.550781 
	C893.993530,330.457428 894.286987,328.286194 895.149353,327.453033 
	C896.194275,326.443542 897.557983,325.555237 898.932251,325.215546 
	C899.378418,325.105286 900.328430,326.860321 900.983887,327.806549 
	C902.299500,329.705811 903.571106,331.635620 904.860840,333.552795 
	C905.343140,333.281189 905.825378,333.009552 906.307678,332.737946 
	C906.307678,331.072845 906.307678,329.407745 906.307678,327.788483 
	C913.658569,328.546173 920.897766,328.910370 927.954163,330.242523 
	C930.193420,330.665253 933.499329,333.553314 933.643372,335.510010 
	C934.178772,342.782990 937.131348,347.065216 944.946655,347.259552 
	C944.595276,349.067566 944.349365,350.333069 944.109314,352.005615 
	C932.238037,362.456451 920.368408,372.509186 908.478516,382.537781 
	C905.565979,384.994293 902.586975,387.371887 899.153931,389.588867 
	C896.202087,387.076172 893.196594,387.242889 891.921448,389.926300 
	C889.923035,394.131683 886.174683,395.597504 882.778503,397.880249 
	C876.508484,402.094696 869.214111,399.733582 867.357239,392.645355 
	C867.147522,391.844940 867.296997,390.812714 866.839600,390.239105 
	C865.007202,387.941528 863.265015,385.404572 860.922119,383.768646 
	C860.054688,383.162964 857.593018,384.718506 855.915527,385.424103 
	C853.504028,386.438446 852.277466,386.063873 851.950867,383.128113 
	C851.147766,375.909302 846.703308,372.093750 839.408447,372.006104 
	C833.110291,371.930450 832.064392,371.233002 831.087524,364.756927 
	C830.546631,361.170837 828.713867,359.493317 825.441650,360.089386 
	C820.454712,360.997803 817.210754,358.650879 814.757507,354.948425 
	C813.450989,352.976715 812.918152,350.492401 812.291870,348.892761 
	C807.199463,347.330658 802.590027,345.916718 797.434875,344.335358 
	C796.775757,346.589752 796.059753,349.038818 795.484741,351.005493 
	C792.467407,351.005493 789.678589,350.973846 786.890686,351.013611 
	C783.545654,351.061310 781.091431,350.548981 782.681152,346.155304 
	C782.952148,345.406311 781.783569,344.136505 781.280090,343.107300 
	C780.246765,343.750916 778.703979,344.151733 778.262756,345.077515 
	C775.387024,351.111633 770.123901,353.537354 763.871582,351.383789 
	C763.080505,352.524536 762.276917,353.683319 760.905212,355.661285 
	C759.208740,353.693451 757.848206,352.115265 756.043945,350.022400 
	C758.844910,349.146698 760.329285,348.682617 761.777954,348.229706 
	C761.657593,344.219238 759.870911,341.666168 756.262512,343.284576 
	C752.519165,344.963470 750.396118,344.017700 747.627319,341.544128 
	C744.440613,338.697113 743.959778,336.336395 747.034058,333.322571 
	C748.127441,332.250671 749.066162,331.021149 750.380798,329.513367 
	C744.299561,326.082336 744.290894,330.615234 743.180725,334.795288 
	C739.734131,334.179077 734.914734,334.706909 733.438721,332.733704 
	C731.121460,329.635986 726.525635,325.691711 730.813660,320.591858 
	C731.095581,320.256622 730.674744,319.330627 730.580811,318.679382 
	C730.580872,318.679382 730.649841,318.651367 731.035034,318.738708 
	C733.318787,318.006927 735.303345,317.341949 737.100159,316.340240 
	C742.892578,313.111023 741.261108,306.401581 743.834106,301.646454 
	C759.886841,281.693787 778.306824,264.234985 799.071960,249.252487 
	C799.447571,248.981430 800.013855,248.974594 800.784729,248.739716 
z"/>
<path fill="#E4B047" opacity="1.000000" stroke="none" 
	d="
M808.349121,536.779175 
	C805.696594,535.808472 803.278198,534.568237 800.859802,533.328003 
	C800.569397,536.084473 800.159241,538.835022 800.021362,541.599121 
	C799.875427,544.525085 799.988586,547.463867 799.988586,551.956665 
	C797.159485,549.323059 795.171265,547.913025 793.746216,546.067993 
	C788.114563,538.776917 784.981628,538.365601 777.660828,544.274475 
	C777.423950,544.465637 777.062500,544.502319 776.565613,544.680359 
	C772.441162,541.738525 769.394836,535.936279 761.643372,539.426880 
	C768.145081,525.459900 758.350952,519.833862 750.112305,513.136230 
	C746.118164,516.813477 743.044556,514.008423 741.613647,510.668213 
	C739.581360,505.924316 736.844910,504.806091 732.295593,507.108490 
	C731.558411,505.443512 730.950256,504.300598 730.537048,503.091095 
	C729.504639,500.068939 727.217041,499.750214 724.514832,500.072479 
	C721.391418,500.445007 718.257751,500.732330 715.127319,501.044403 
	C714.632996,501.093689 713.912109,500.867493 713.666870,501.123688 
	C708.566345,506.451965 705.085632,500.231201 700.855164,499.411346 
	C699.419373,499.133087 697.770020,498.915558 696.440979,499.350647 
	C693.887390,500.186676 692.170288,500.347168 690.810059,497.365265 
	C690.130737,495.876160 688.070679,495.016907 686.472900,493.743408 
	C688.423523,487.936920 693.612305,493.784576 697.027954,490.954895 
	C696.240601,488.885742 695.390869,486.652771 694.397827,484.042999 
	C692.695557,485.059357 691.245850,485.924957 688.828979,487.368011 
	C689.723328,484.496796 690.300171,482.644928 690.877014,480.793060 
	C690.509766,480.421509 690.142517,480.049957 689.775269,479.678406 
	C688.264648,481.016083 686.332336,482.093964 685.319397,483.738281 
	C681.735291,489.555969 675.176575,492.092926 668.919373,490.059540 
	C667.197083,489.499817 665.123779,490.126495 663.252197,489.888672 
	C661.523987,489.669067 659.850342,489.020386 656.772827,488.187073 
	C662.340149,484.326019 663.075439,480.558167 658.622620,476.342133 
	C659.900391,476.852570 661.178162,477.363007 662.450500,477.871277 
	C667.506348,473.402832 667.888611,470.006561 664.342224,464.739075 
	C662.976440,462.710449 662.400330,460.153992 661.057373,458.104797 
	C660.200073,456.796692 658.596313,455.977783 656.903381,454.902740 
	C663.388794,439.409485 670.298096,423.953033 677.835083,408.217072 
	C680.348633,404.535797 682.155762,401.086731 684.156616,397.753967 
	C685.044861,396.274414 686.324280,395.029663 687.966675,393.015289 
	C688.841858,395.339111 689.823486,396.591064 689.554504,397.452423 
	C687.887878,402.788361 691.834412,404.015289 695.265686,405.608002 
	C696.603271,406.228851 698.060181,406.598755 699.473633,407.048737 
	C704.740173,408.725189 708.575562,411.560730 709.145203,417.667816 
	C709.255066,418.846039 710.799744,420.494965 712.006409,420.861938 
	C717.283752,422.466980 722.712646,423.570099 728.008301,425.122314 
	C729.156067,425.458740 730.200378,426.758636 730.897766,427.863770 
	C731.738525,429.195770 732.531921,430.761932 732.660400,432.284546 
	C732.802063,433.964294 732.521667,435.889313 731.769897,437.376129 
	C731.011169,438.876617 729.448853,439.970734 728.238647,441.242920 
	C730.160645,441.496124 732.080933,441.763062 734.005737,441.993011 
	C734.497986,442.051849 735.077026,442.153687 735.492554,441.964386 
	C739.292297,440.233765 744.504822,439.385712 746.450989,436.412170 
	C748.506775,433.271057 750.485840,432.384308 753.020386,433.274109 
	C754.441895,433.773102 754.912292,436.704773 756.041504,438.385651 
	C757.335388,440.311646 758.569092,442.895782 760.433289,443.604584 
	C761.682922,444.079742 764.201294,442.033783 765.747986,440.660828 
	C767.051086,439.504181 767.771790,437.691437 768.839050,436.031128 
	C771.855652,436.687500 774.729858,437.733215 777.642090,437.852783 
	C782.606506,438.056610 782.403809,441.052002 781.656982,444.387482 
	C781.337524,445.813965 780.347168,447.076599 779.806885,448.470032 
	C778.714111,451.287933 780.024109,452.538055 782.770142,452.549316 
	C783.878967,452.553864 784.989136,452.221527 786.482056,451.980652 
	C787.744019,456.112335 788.468323,460.252594 790.293274,463.831573 
	C791.493591,466.185516 794.024475,468.322693 796.468628,469.381927 
	C797.653259,469.895294 799.967163,467.618286 801.841797,466.762329 
	C805.656860,465.020416 809.574768,461.996185 813.347534,462.142853 
	C816.404602,462.261688 819.213623,466.391296 822.310974,468.477234 
	C825.772705,470.808533 829.435425,472.841309 833.010681,475.004028 
	C824.868164,495.505890 816.725708,516.007751 808.349121,536.779175 
z"/>
<path fill="#DFAA40" opacity="1.000000" stroke="none" 
	d="
M833.260376,474.772400 
	C829.435425,472.841309 825.772705,470.808533 822.310974,468.477234 
	C819.213623,466.391296 816.404602,462.261688 813.347534,462.142853 
	C809.574768,461.996185 805.656860,465.020416 801.841797,466.762329 
	C799.967163,467.618286 797.653259,469.895294 796.468628,469.381927 
	C794.024475,468.322693 791.493591,466.185516 790.293274,463.831573 
	C788.468323,460.252594 787.744019,456.112335 786.482056,451.980652 
	C784.989136,452.221527 783.878967,452.553864 782.770142,452.549316 
	C780.024109,452.538055 778.714111,451.287933 779.806885,448.470032 
	C780.347168,447.076599 781.337524,445.813965 781.656982,444.387482 
	C782.403809,441.052002 782.606506,438.056610 777.642090,437.852783 
	C774.729858,437.733215 771.855652,436.687500 768.839050,436.031128 
	C767.771790,437.691437 767.051086,439.504181 765.747986,440.660828 
	C764.201294,442.033783 761.682922,444.079742 760.433289,443.604584 
	C758.569092,442.895782 757.335388,440.311646 756.041504,438.385651 
	C754.912292,436.704773 754.441895,433.773102 753.020386,433.274109 
	C750.485840,432.384308 748.506775,433.271057 746.450989,436.412170 
	C744.504822,439.385712 739.292297,440.233765 735.492554,441.964386 
	C735.077026,442.153687 734.497986,442.051849 734.005737,441.993011 
	C732.080933,441.763062 730.160645,441.496124 728.238647,441.242920 
	C729.448853,439.970734 731.011169,438.876617 731.769897,437.376129 
	C732.521667,435.889313 732.802063,433.964294 732.660400,432.284546 
	C732.531921,430.761932 731.738525,429.195770 730.897766,427.863770 
	C730.200378,426.758636 729.156067,425.458740 728.008301,425.122314 
	C722.712646,423.570099 717.283752,422.466980 712.006409,420.861938 
	C710.799744,420.494965 709.255066,418.846039 709.145203,417.667816 
	C708.575562,411.560730 704.740173,408.725189 699.473633,407.048737 
	C698.060181,406.598755 696.603271,406.228851 695.265686,405.608002 
	C691.834412,404.015289 687.887878,402.788361 689.554504,397.452423 
	C689.823486,396.591064 688.841858,395.339111 687.966675,393.015289 
	C686.324280,395.029663 685.044861,396.274414 684.156616,397.753967 
	C682.155762,401.086731 680.348633,404.535797 678.084961,407.985565 
	C686.093445,391.965546 694.440002,375.876648 702.898926,359.847046 
	C704.603699,356.616364 706.734802,353.610596 709.246094,350.207214 
	C712.099731,347.371643 713.950317,344.019135 716.781067,342.530640 
	C719.296570,341.207886 720.586243,340.087799 721.229370,337.385864 
	C721.531494,336.116516 723.348572,335.207733 724.479187,334.135559 
	C725.280701,335.098267 726.393066,335.941193 726.819580,337.048370 
	C727.734253,339.423035 728.294983,341.934052 728.656494,343.192078 
	C731.539062,345.717194 734.929138,347.273529 735.777771,349.713654 
	C737.772278,355.448669 739.630188,357.591187 745.968506,357.991180 
	C753.013916,358.435791 753.013916,358.435791 752.468994,365.141724 
	C759.425110,371.752441 766.592468,371.954529 775.169495,367.831726 
	C779.278992,365.856415 784.977478,364.364624 789.895142,367.930695 
	C797.588440,373.509460 804.995239,379.625275 815.119629,381.453644 
	C812.907104,385.681183 814.581665,387.909912 817.951843,389.489624 
	C821.095886,390.963379 824.072998,392.495087 826.541504,388.338684 
	C826.987244,387.588165 828.602844,386.991943 829.534119,387.153870 
	C838.648315,388.738800 847.158447,391.924561 854.977783,396.799164 
	C851.476440,405.479950 853.093018,407.671570 862.248962,407.445312 
	C862.997498,407.426788 864.296753,407.673615 864.428711,408.087555 
	C865.947083,412.852844 869.557922,413.103363 873.616882,412.661011 
	C873.906982,412.629395 874.278931,413.348633 874.612854,413.718750 
	C858.423279,432.310913 844.816772,452.648773 833.260376,474.772400 
z"/>
<path fill="#E4B047" opacity="1.000000" stroke="none" 
	d="
M874.910400,413.585083 
	C874.278931,413.348633 873.906982,412.629395 873.616882,412.661011 
	C869.557922,413.103363 865.947083,412.852844 864.428711,408.087555 
	C864.296753,407.673615 862.997498,407.426788 862.248962,407.445312 
	C853.093018,407.671570 851.476440,405.479950 854.977783,396.799164 
	C847.158447,391.924561 838.648315,388.738800 829.534119,387.153870 
	C828.602844,386.991943 826.987244,387.588165 826.541504,388.338684 
	C824.072998,392.495087 821.095886,390.963379 817.951843,389.489624 
	C814.581665,387.909912 812.907104,385.681183 815.119629,381.453644 
	C804.995239,379.625275 797.588440,373.509460 789.895142,367.930695 
	C784.977478,364.364624 779.278992,365.856415 775.169495,367.831726 
	C766.592468,371.954529 759.425110,371.752441 752.468994,365.141724 
	C753.013916,358.435791 753.013916,358.435791 745.968506,357.991180 
	C739.630188,357.591187 737.772278,355.448669 735.777771,349.713654 
	C734.929138,347.273529 731.539062,345.717194 728.656494,343.192078 
	C728.294983,341.934052 727.734253,339.423035 726.819580,337.048370 
	C726.393066,335.941193 725.280701,335.098267 724.479187,334.135559 
	C723.348572,335.207733 721.531494,336.116516 721.229370,337.385864 
	C720.586243,340.087799 719.296570,341.207886 716.781067,342.530640 
	C713.950317,344.019135 712.099731,347.371643 709.486023,349.959167 
	C716.098267,339.657043 723.047180,329.309052 730.288452,318.820251 
	C730.674744,319.330627 731.095581,320.256622 730.813660,320.591858 
	C726.525635,325.691711 731.121460,329.635986 733.438721,332.733704 
	C734.914734,334.706909 739.734131,334.179077 743.180725,334.795288 
	C744.290894,330.615234 744.299561,326.082336 750.380798,329.513367 
	C749.066162,331.021149 748.127441,332.250671 747.034058,333.322571 
	C743.959778,336.336395 744.440613,338.697113 747.627319,341.544128 
	C750.396118,344.017700 752.519165,344.963470 756.262512,343.284576 
	C759.870911,341.666168 761.657593,344.219238 761.777954,348.229706 
	C760.329285,348.682617 758.844910,349.146698 756.043945,350.022400 
	C757.848206,352.115265 759.208740,353.693451 760.905212,355.661285 
	C762.276917,353.683319 763.080505,352.524536 763.871582,351.383789 
	C770.123901,353.537354 775.387024,351.111633 778.262756,345.077515 
	C778.703979,344.151733 780.246765,343.750916 781.280090,343.107300 
	C781.783569,344.136505 782.952148,345.406311 782.681152,346.155304 
	C781.091431,350.548981 783.545654,351.061310 786.890686,351.013611 
	C789.678589,350.973846 792.467407,351.005493 795.484741,351.005493 
	C796.059753,349.038818 796.775757,346.589752 797.434875,344.335358 
	C802.590027,345.916718 807.199463,347.330658 812.291870,348.892761 
	C812.918152,350.492401 813.450989,352.976715 814.757507,354.948425 
	C817.210754,358.650879 820.454712,360.997803 825.441650,360.089386 
	C828.713867,359.493317 830.546631,361.170837 831.087524,364.756927 
	C832.064392,371.233002 833.110291,371.930450 839.408447,372.006104 
	C846.703308,372.093750 851.147766,375.909302 851.950867,383.128113 
	C852.277466,386.063873 853.504028,386.438446 855.915527,385.424103 
	C857.593018,384.718506 860.054688,383.162964 860.922119,383.768646 
	C863.265015,385.404572 865.007202,387.941528 866.839600,390.239105 
	C867.296997,390.812714 867.147522,391.844940 867.357239,392.645355 
	C869.214111,399.733582 876.508484,402.094696 882.778503,397.880249 
	C886.174683,395.597504 889.923035,394.131683 891.921448,389.926300 
	C893.196594,387.242889 896.202087,387.076172 898.842529,389.717407 
	C891.079712,397.845734 883.143799,405.648590 874.910400,413.585083 
M815.675659,363.224579 
	C815.416870,362.620453 815.158142,362.016327 814.899414,361.412231 
	C814.401367,361.904633 813.903381,362.397064 813.405334,362.889435 
	C814.006226,363.155090 814.607056,363.420715 815.675659,363.224579 
M808.429138,359.702576 
	C808.703064,359.989532 808.976990,360.276520 809.250916,360.563477 
	C809.369629,360.449860 809.597900,360.243713 809.591309,360.235992 
	C809.335632,359.933350 809.058533,359.648804 808.429138,359.702576 
z"/>
<path fill="#D9A33A" opacity="1.000000" stroke="none" 
	d="
M343.742157,746.283020 
	C344.522217,745.040710 345.720673,743.094788 346.258698,743.262939 
	C348.329498,743.909790 351.671631,745.008728 351.873657,746.342896 
	C352.809906,752.525269 357.624908,754.616516 361.812317,757.682617 
	C363.005219,758.556091 363.403290,761.007019 363.480072,762.764465 
	C363.547150,764.299988 362.650238,765.877625 362.151550,767.528259 
	C365.731873,770.447998 372.135498,770.799072 370.904419,777.500427 
	C370.242401,781.104065 367.926392,782.916321 363.816101,782.934631 
	C360.185822,769.009216 353.937531,756.750916 343.742157,746.283020 
z"/>
<path fill="#E4B047" opacity="1.000000" stroke="none" 
	d="
M743.530273,301.806274 
	C741.261108,306.401581 742.892578,313.111023 737.100159,316.340240 
	C735.303345,317.341949 733.318787,318.006927 731.030151,318.701843 
	C734.835571,313.040405 739.031006,307.503235 743.530273,301.806274 
z"/>
<path fill="#EAB64B" opacity="1.000000" stroke="none" 
	d="
M691.358643,779.017700 
	C691.063904,777.933105 691.118774,776.617737 690.985168,775.321777 
	C690.592224,771.513245 691.073792,768.469360 695.401611,766.852539 
	C697.354492,766.122986 698.739319,763.872742 700.680420,762.153320 
	C697.860046,767.594727 694.741028,773.195312 691.358643,779.017700 
z"/>
<path fill="#E4B047" opacity="1.000000" stroke="none" 
	d="
M652.682007,463.204407 
	C654.780396,464.769226 656.675720,466.522064 658.444763,468.394135 
	C659.052612,469.037292 659.830872,470.587646 659.705444,470.687622 
	C658.634827,471.541077 657.404785,472.654297 656.163452,472.730560 
	C654.080444,472.858551 651.954102,472.280823 649.420776,471.999512 
	C650.140137,469.145721 651.284729,466.292450 652.682007,463.204407 
z"/>
<path fill="#D9A33A" opacity="1.000000" stroke="none" 
	d="
M331.739929,736.504150 
	C333.822693,736.239258 336.118134,736.243103 338.413574,736.246948 
	C338.399506,737.654846 338.385437,739.062744 338.174988,740.754150 
	C335.969910,739.616028 333.961273,738.194458 331.739929,736.504150 
z"/>
<path fill="#DFAA40" opacity="1.000000" stroke="none" 
	d="
M661.122070,828.249817 
	C658.841064,827.368225 656.033813,826.764771 657.885986,822.788452 
	C659.513672,823.491211 660.957214,824.114563 662.732910,824.884277 
	C662.491272,826.046204 661.917480,827.061768 661.122070,828.249817 
z"/>
<path fill="#DFAA40" opacity="1.000000" stroke="none" 
	d="
M418.640259,575.853943 
	C416.744263,575.938538 414.471588,575.921570 412.108093,575.548950 
	C414.099396,575.379761 416.181488,575.566040 418.640259,575.853943 
z"/>
<path fill="#DFAA40" opacity="1.000000" stroke="none" 
	d="
M409.622437,574.901001 
	C407.726868,574.962097 405.456848,574.916870 403.099823,574.513062 
	C405.091217,574.367859 407.169617,574.581299 409.622437,574.901001 
z"/>
<path fill="#D9A33A" opacity="1.000000" stroke="none" 
	d="
M341.657410,564.878479 
	C340.383606,564.960205 338.773438,564.901917 337.089172,564.503418 
	C338.450409,564.354980 339.885742,564.546692 341.657410,564.878479 
z"/>
<path fill="#D9A33A" opacity="1.000000" stroke="none" 
	d="
M346.765839,565.689087 
	C345.755005,565.850464 344.449280,565.825073 343.077148,565.463501 
	C344.164154,565.252319 345.317535,565.377319 346.765839,565.689087 
z"/>
<path fill="#D9A33A" opacity="1.000000" stroke="none" 
	d="
M334.752625,563.722778 
	C333.810699,563.845886 332.585419,563.770264 331.200714,563.414795 
	C332.183929,563.264648 333.326599,563.394348 334.752625,563.722778 
z"/>
<path fill="#D9A33A" opacity="1.000000" stroke="none" 
	d="
M603.343384,863.934448 
	C603.952881,863.505737 604.896301,863.139771 606.019043,863.073853 
	C605.357971,863.581665 604.517639,863.789490 603.343384,863.934448 
z"/>
<path fill="#B2B3B5" opacity="1.000000" stroke="none" 
	d="
M838.048584,952.308350 
	C838.873047,952.487671 839.874023,952.934937 840.901489,953.746460 
	C840.026978,953.599304 839.126038,953.087830 838.048584,952.308350 
z"/>
<path fill="#B2B3B5" opacity="1.000000" stroke="none" 
	d="
M830.053467,946.308777 
	C830.878906,946.542297 831.882629,947.045044 832.895020,947.933838 
	C832.013000,947.739197 831.122375,947.158569 830.053467,946.308777 
z"/>
<path fill="#B2B3B5" opacity="1.000000" stroke="none" 
	d="
M826.165588,943.271851 
	C826.972046,943.509033 827.933105,944.021301 828.903870,944.907349 
	C828.049133,944.703125 827.184631,944.125000 826.165588,943.271851 
z"/>
<path fill="#D9A33A" opacity="1.000000" stroke="none" 
	d="
M329.327820,685.510620 
	C329.795410,686.438965 329.961395,687.519958 330.127380,688.600952 
	C329.476135,688.525574 328.824860,688.450134 328.173615,688.374756 
	C328.457794,687.470947 328.741974,686.567139 329.327820,685.510620 
z"/>
<path fill="#D9A33A" opacity="1.000000" stroke="none" 
	d="
M445.715942,802.035034 
	C445.697845,802.509644 445.395660,803.019287 445.093475,803.528931 
	C444.884064,803.347412 444.674683,803.165955 444.465302,802.984497 
	C444.787506,802.679688 445.109680,802.374817 445.715942,802.035034 
z"/>
<path fill="#DFAA40" opacity="1.000000" stroke="none" 
	d="
M448.038055,627.603882 
	C447.837616,626.474609 447.966644,625.379944 448.095703,624.285217 
	C448.670502,624.432922 449.245300,624.580627 449.820099,624.728333 
	C449.335907,625.698364 448.851715,626.668396 448.038055,627.603882 
z"/>
<path fill="#D9A33A" opacity="1.000000" stroke="none" 
	d="
M445.343811,734.052185 
	C445.446289,732.395630 445.892548,730.791199 446.338745,729.186768 
	C447.688782,729.615601 450.053253,729.824219 450.202911,730.513611 
	C450.696503,732.786987 450.388855,735.234192 450.388855,737.614685 
	C449.973572,737.679077 449.558289,737.743408 449.143005,737.807800 
	C447.991180,736.573303 446.839386,735.338867 445.343811,734.052185 
z"/>
<path fill="#D9A33A" opacity="1.000000" stroke="none" 
	d="
M337.736755,572.016479 
	C337.863342,570.907288 338.214233,570.023376 338.565125,569.139526 
	C339.066895,569.443970 339.568695,569.748413 340.070496,570.052856 
	C339.367340,570.782532 338.664215,571.512146 337.736755,572.016479 
z"/>
<path fill="#B8B8BA" opacity="1.000000" stroke="none" 
	d="
M835.041260,821.940308 
	C836.591064,820.533997 838.118713,819.510925 839.646301,818.487793 
	C840.063477,819.074280 840.480591,819.660767 840.897766,820.247253 
	C839.190186,821.651794 837.482605,823.056335 835.775024,824.460938 
	C835.523071,823.748474 835.271057,823.036072 835.041260,821.940308 
z"/>
<path fill="#B8B8BA" opacity="1.000000" stroke="none" 
	d="
M849.694092,855.475281 
	C850.448425,855.469482 850.983704,855.674500 851.519043,855.879517 
	C851.384338,856.153687 851.249573,856.427795 851.114746,856.701904 
	C850.568176,856.363281 850.021545,856.024658 849.694092,855.475281 
z"/>
<path fill="#D9A33A" opacity="1.000000" stroke="none" 
	d="
M902.811218,324.607971 
	C904.116028,318.409546 907.662476,322.951843 910.492249,323.454315 
	C908.029602,323.904785 905.566895,324.355286 902.811218,324.607971 
z"/>
<path fill="#D9A33A" opacity="1.000000" stroke="none" 
	d="
M887.326660,299.066956 
	C888.324890,298.502625 889.340698,298.285461 890.356506,298.068268 
	C890.417603,298.825073 890.478638,299.581909 890.539734,300.338715 
	C889.474548,300.030548 888.409424,299.722351 887.326660,299.066956 
z"/>
<path fill="#D9A33A" opacity="1.000000" stroke="none" 
	d="
M892.761719,306.914124 
	C891.998474,307.303680 891.318726,307.384857 890.639038,307.466064 
	C890.731995,306.919373 890.824951,306.372711 890.917908,305.826019 
	C891.560364,306.085938 892.202759,306.345856 892.761719,306.914124 
z"/>
<path fill="#D9A33A" opacity="1.000000" stroke="none" 
	d="
M856.645142,292.539307 
	C856.118408,292.156067 855.855469,291.637543 855.592529,291.119019 
	C856.130371,290.895782 856.668152,290.672485 857.205933,290.449219 
	C857.106995,291.100800 857.007996,291.752411 856.645142,292.539307 
z"/>
<path fill="#D9A33A" opacity="1.000000" stroke="none" 
	d="
M928.534912,325.390503 
	C928.650818,324.941589 928.933655,324.666412 929.234375,324.412506 
	C929.242065,324.406036 929.446716,324.632843 929.559448,324.750854 
	C929.274292,325.022888 928.989136,325.294952 928.534912,325.390503 
z"/>
<path fill="#D9A33A" opacity="1.000000" stroke="none" 
	d="
M815.441772,363.455475 
	C814.607056,363.420715 814.006226,363.155090 813.405396,362.889465 
	C813.903381,362.397064 814.401367,361.904633 814.899414,361.412231 
	C815.158142,362.016327 815.416870,362.620453 815.441772,363.455475 
z"/>
<path fill="#D9A33A" opacity="1.000000" stroke="none" 
	d="
M808.606689,359.532227 
	C809.058533,359.648804 809.335632,359.933350 809.591309,360.235992 
	C809.597900,360.243713 809.369629,360.449860 809.250916,360.563477 
	C808.976990,360.276520 808.703064,359.989532 808.606689,359.532227 
z"/>
</svg>